Coordinates
version=1
nRows=7
nColumns=40
inDegrees=yes

Units are S.I. units (second, meters, Newtons, ...)
Angles are in degrees.

endheader
time	pelvis_tilt	pelvis_list	pelvis_rotation	pelvis_tx	pelvis_ty	pelvis_tz	hip_flexion_r	hip_adduction_r	hip_rotation_r	knee_angle_r	knee_angle_r_beta	ankle_angle_r	subtalar_angle_r	mtp_angle_r	hip_flexion_l	hip_adduction_l	hip_rotation_l	knee_angle_l	knee_angle_l_beta	ankle_angle_l	subtalar_angle_l	mtp_angle_l	lumbar_extension	lumbar_bending	lumbar_rotation	arm_flex_r	arm_add_r	arm_rot_r	elbow_flex_r	pro_sup_r	wrist_flex_r	wrist_dev_r	arm_flex_l	arm_add_l	arm_rot_l	elbow_flex_l	pro_sup_l	wrist_flex_l	wrist_dev_l
     35.20000000	     -6.66729467	     -2.52365457	      7.94972771	      0.87759590	      0.91531835	      0.49454977	      9.42846492	      1.04300058	    -11.87945303	     22.34550657	     22.34550657	     19.56688614	    -11.03303502	     -0.60384033	     30.57775542	     -4.43921661	      3.36314352	     19.02484049	     19.02484049	      4.64856218	     -3.89934244	      1.28534982	    -11.08058473	      2.93676088	      2.49024253	     42.87994558	    -14.28513594	     -0.70860662	    106.70950383	     44.01471345	      0.00000000	      0.00000000	    -10.59754188	     -8.72493054	     -2.64698095	     32.50918443	     46.70545318	      0.00000000	      0.00000000
     35.21757143	     -6.71450959	     -2.60575544	      8.01010968	      0.87885168	      0.91430296	      0.49154893	      9.17875002	      0.90817023	    -11.96588720	     22.70734648	     22.70734648	     19.82498095	    -10.99492119	     -0.69654619	     30.51156360	     -4.32987743	      3.29635710	     19.63887091	     19.63887091	      4.05953553	     -4.10154432	      0.72359499	    -10.99965156	      2.93310560	      2.45437433	     44.29788313	    -13.96679554	     -0.46743080	    107.73117335	     43.99047599	      0.00000000	      0.00000000	    -10.99462866	     -8.44715077	     -2.51159535	     32.40574149	     46.67352596	      0.00000000	      0.00000000
     35.23514286	     -6.77716543	     -2.67404613	      8.06317336	      0.88006042	      0.91330388	      0.48836111	      8.94867019	      0.74935728	    -11.97514163	     23.07147526	     23.07147526	     20.10607531	    -10.94532714	     -0.78379618	     30.53592648	     -4.17626498	      3.36564350	     20.40723865	     20.40723865	      3.52504321	     -4.53210032	      0.17038557	    -10.91874951	      2.90133396	      2.40481893	     45.44396725	    -13.79135229	     -0.26492271	    108.49991527	     43.97428094	      0.00000000	      0.00000000	    -11.22720580	     -8.14510769	     -2.36147547	     32.31987081	     46.64221706	      0.00000000	      0.00000000
     35.25271429	     -6.85237066	     -2.73025209	      8.13723064	      0.88132275	      0.91243164	      0.48484193	      8.72336616	      0.52415329	    -12.10996804	     23.45904438	     23.45904438	     20.47046756	    -10.69281252	     -0.43241738	     30.45576047	     -3.88658534	      3.88870432	     20.90595147	     20.90595147	      2.07667022	     -5.99989891	     -2.41753916	    -10.82584056	      2.88519857	      2.37720939	     46.25395765	    -13.84512245	      0.21758947	    109.05645966	     44.03830704	      0.00000000	      0.00000000	    -11.30069020	     -7.90444429	     -1.53182386	     32.21836190	     46.46596471	      0.00000000	      0.00000000
     35.27028571	     -6.83859290	     -2.75572020	      8.18155662	      0.88262340	      0.91189790	      0.48122883	      8.37865625	      0.30297019	    -12.07622088	     23.77806510	     23.77806510	     20.56520092	    -10.66292097	     -0.51821374	     30.47597822	     -3.63718386	      4.19672102	     21.87954877	     21.87954877	      2.13391066	     -6.61024522	     -2.44205337	    -10.84374187	      2.91133707	      2.42228918	     46.94326893	    -13.69721389	      0.11639712	    109.35253269	     44.04328766	      0.00000000	      0.00000000	    -11.21512387	     -7.66012054	     -1.41958858	     32.15670483	     46.44687927	      0.00000000	      0.00000000
     35.28785714	     -6.86342112	     -2.81217429	      8.21918735	      0.88397388	      0.91152603	      0.47751434	      8.00234125	      0.10197797	    -12.16289368	     23.95668830	     23.95668830	     20.62403364	    -10.53597656	     -0.59593066	     30.56395859	     -3.36874969	      4.67451179	     22.90298274	     22.90298274	      2.34834002	     -7.45962665	     -2.34208774	    -10.81480500	      2.87184888	      2.51423573	     47.32287161	    -13.59820139	      0.01601150	    109.42110726	     44.05396165	      0.00000000	      0.00000000	    -11.00005412	     -7.36919883	     -1.28449703	     32.10648317	     46.42658834	      0.00000000	      0.00000000
     35.30542857	     -6.92876905	     -2.76425264	      8.22249410	      0.88538908	      0.91151967	      0.47371334	      7.56449930	     -0.19068050	    -12.17435529	     23.95677568	     23.95677568	     20.54936321	    -10.43140655	     -0.58273417	     30.51767477	     -3.03243968	      4.94702393	     23.62883989	     23.62883989	      2.64240463	     -7.97023694	     -2.37335685	    -10.73606188	      2.74977040	      2.59283592	     47.36131028	    -13.51523957	     -0.01116596	    109.32718179	     44.06091849	      0.00000000	      0.00000000	    -10.64372004	     -7.01870597	     -1.18796791	     32.20556349	     46.41684107	      0.00000000	      0.00000000
